<svg xmlns="http://www.w3.org/2000/svg" viewBox="0 0 760 760" width="760" height="760" style="cursor:default" role="img" aria-label="Sample">
<defs><radialGradient id="bggrad" cx="50%" cy="40%" r="82%"><stop id="bs0" offset="0%" stop-color="#ffffff"/><stop id="bs1" offset="100%" stop-color="#ffffff"/></radialGradient><linearGradient id="ringgrad" x1="0.05" y1="0.05" x2="0.95" y2="0.95"><stop id="rs0" offset="0%" stop-color="#b0b0b0"/><stop id="rs1" offset="50%" stop-color="#b0b0b0"/><stop id="rs2" offset="100%" stop-color="#b0b0b0"/></linearGradient></defs><style>.ring{fill:none;stroke:url(#ringgrad);stroke-width:3.4}.tick{stroke:#b0b0b0;stroke-width:3.4}.sign{fill:#3a3a3a;font:600 23.94px "Segoe UI Symbol","Noto Sans Symbols2","Apple Symbols",system-ui,sans-serif}.cusp{stroke:#7f9fd4;stroke-width:2}.cusp-angle{stroke:#3f5f9c;stroke-width:2.4}.hdiv{stroke:#a3aab8;stroke-width:1.3}.leader{stroke:#c3c7cf;stroke-width:2;stroke-dasharray:1 5;stroke-linecap:round}.housenum{fill:#3a3a3a;font:600 15.96px system-ui,sans-serif}.anglelab{fill:#1c1c1c;font:800 23.94px system-ui,sans-serif}.ac-sm{font-size:0.5em}.pmark{stroke:#b6b6b6;stroke-width:1.6}.planet{fill:#111111;font:600 30.93px "Segoe UI Symbol","Noto Sans Symbols2","Apple Symbols",system-ui,sans-serif}.deg{fill:#5f5f5f;font:600 16.34px system-ui,sans-serif}.deg-rx{fill:#c0392b}.cuspdeg{fill:#5f5f5f;font:700 15.03px system-ui,sans-serif}.cuspmin{fill:#5f5f5f;font:600 12.42px system-ui,sans-serif}.cuspsec{fill:#5f5f5f;font:600 10.46px system-ui,sans-serif}.signn{fill:#3a3a3a;font:600 18.79px "Segoe UI Symbol","Noto Sans Symbols2","Apple Symbols",system-ui,sans-serif}.signn-rx{fill:#c0392b}.aspect{stroke-width:1.1;fill:none;opacity:.85}.title{fill:#222222;font:600 14.97px system-ui,sans-serif}.prof-band{fill:#c9962e;fill-opacity:.16;stroke:#c9962e;stroke-opacity:.85;stroke-width:2}.prof-ruler{fill:none;stroke:#c9962e;stroke-opacity:.9;stroke-width:2.4}.prof-tl{fill:#c9962e;font:800 14.05px system-ui,sans-serif}.prof-key{fill:#5f5f5f;font:600 16.34px system-ui,sans-serif}.prof-key-em{fill:#c9962e;font-weight:700}.prof-key-eyebrow{fill:#c9962e;font:800 13.4px system-ui,sans-serif;letter-spacing:1.4px}</style>
<rect x="0" y="0" width="760" height="760" class="bg" fill="url(#bggrad)"/>
<circle cx="380.0" cy="380.0" r="342.0" class="ring"/>
<circle cx="380.0" cy="380.0" r="294.8" class="ring"/>
<circle cx="380.0" cy="380.0" r="126.8" class="ring"/>
<circle cx="380.0" cy="380.0" r="97.3" class="ring"/>
<text x="380.0" y="61.6" class="sign" dominant-baseline="central" text-anchor="middle"><title>Aries · 10th house</title>♈︎</text>
<text x="220.8" y="104.3" class="sign" dominant-baseline="central" text-anchor="middle"><title>Taurus · 11th house</title>♉︎</text>
<text x="104.3" y="220.8" class="sign" dominant-baseline="central" text-anchor="middle"><title>Gemini · 12th house</title>♊︎</text>
<text x="61.6" y="380.0" class="sign" dominant-baseline="central" text-anchor="middle"><title>Cancer · 1st house (Rising)</title>♋︎</text>
<text x="104.3" y="539.2" class="sign" dominant-baseline="central" text-anchor="middle"><title>Leo · 2nd house</title>♌︎</text>
<text x="220.8" y="655.7" class="sign" dominant-baseline="central" text-anchor="middle"><title>Virgo · 3rd house</title>♍︎</text>
<text x="380.0" y="698.4" class="sign" dominant-baseline="central" text-anchor="middle"><title>Libra · 4th house</title>♎︎</text>
<text x="539.2" y="655.7" class="sign" dominant-baseline="central" text-anchor="middle"><title>Scorpio · 5th house</title>♏︎</text>
<text x="655.7" y="539.2" class="sign" dominant-baseline="central" text-anchor="middle"><title>Sagittarius · 6th house</title>♐︎</text>
<text x="698.4" y="380.0" class="sign" dominant-baseline="central" text-anchor="middle"><title>Capricorn · 7th house</title>♑︎</text>
<text x="655.7" y="220.8" class="sign" dominant-baseline="central" text-anchor="middle"><title>Aquarius · 8th house</title>♒︎</text>
<text x="539.2" y="104.3" class="sign" dominant-baseline="central" text-anchor="middle"><title>Pisces · 9th house</title>♓︎</text>
<line x1="282.7" y1="380.0" x2="253.2" y2="380.0" class="hdiv"/>
<line x1="253.2" y1="380.0" x2="85.2" y2="380.0" class="cusp"/>
<line x1="295.7" y1="428.6" x2="270.2" y2="443.4" class="hdiv"/>
<line x1="270.2" y1="443.4" x2="124.7" y2="527.4" class="cusp"/>
<line x1="331.4" y1="464.3" x2="316.6" y2="489.8" class="hdiv"/>
<line x1="316.6" y1="489.8" x2="232.6" y2="635.3" class="cusp"/>
<line x1="380.0" y1="477.3" x2="380.0" y2="506.8" class="hdiv"/>
<line x1="380.0" y1="506.8" x2="380.0" y2="674.8" class="cusp"/>
<line x1="428.6" y1="464.3" x2="443.4" y2="489.8" class="hdiv"/>
<line x1="443.4" y1="489.8" x2="527.4" y2="635.3" class="cusp"/>
<line x1="464.3" y1="428.6" x2="489.8" y2="443.4" class="hdiv"/>
<line x1="489.8" y1="443.4" x2="635.3" y2="527.4" class="cusp"/>
<line x1="477.3" y1="380.0" x2="506.8" y2="380.0" class="hdiv"/>
<line x1="506.8" y1="380.0" x2="674.8" y2="380.0" class="cusp"/>
<line x1="464.3" y1="331.4" x2="489.8" y2="316.6" class="hdiv"/>
<line x1="489.8" y1="316.6" x2="635.3" y2="232.6" class="cusp"/>
<line x1="428.6" y1="295.7" x2="443.4" y2="270.2" class="hdiv"/>
<line x1="443.4" y1="270.2" x2="527.4" y2="124.7" class="cusp"/>
<line x1="380.0" y1="282.7" x2="380.0" y2="253.2" class="hdiv"/>
<line x1="380.0" y1="253.2" x2="380.0" y2="85.2" class="cusp"/>
<line x1="331.4" y1="295.7" x2="316.6" y2="270.2" class="hdiv"/>
<line x1="316.6" y1="270.2" x2="232.6" y2="124.7" class="cusp"/>
<line x1="295.7" y1="331.4" x2="270.2" y2="316.6" class="hdiv"/>
<line x1="270.2" y1="316.6" x2="124.7" y2="232.6" class="cusp"/>
<line x1="355.8" y1="114.3" x2="353.3" y2="86.4" class="pmark"/>
<line x1="378.1" y1="125.9" x2="355.8" y2="114.3" class="leader"/>
<text x="391.1" y="132.6" class="anglelab" dominant-baseline="central" text-anchor="middle"><title>Aries Midheaven at 5.20°</title>M<tspan class="ac-sm" dy="4.2">C</tspan></text>
<text x="389.6" y="165.9" class="deg" transform="rotate(-87.4 389.6 165.9)" dominant-baseline="central" text-anchor="middle"><title>Aries Midheaven at 5.20°</title>12′</text>
<text x="388.4" y="194.1" class="signn" transform="rotate(-87.4 388.4 194.1)" dominant-baseline="central" text-anchor="middle"><title>Aries Midheaven at 5.20°</title>♈︎</text>
<text x="387.3" y="218.7" class="deg" transform="rotate(-87.4 387.3 218.7)" dominant-baseline="central" text-anchor="middle"><title>Aries Midheaven at 5.20°</title>5°</text>
<line x1="354.4" y1="114.4" x2="351.7" y2="86.6" class="pmark"/>
<line x1="352.5" y1="120.2" x2="354.4" y2="114.4" class="leader"/>
<text x="347.9" y="134.5" class="planet" dominant-baseline="central" text-anchor="middle"><title>Moon in Aries at 5.51°</title>☽︎</text>
<text x="351.8" y="163.9" class="deg" transform="rotate(82.6 351.8 163.9)" dominant-baseline="central" text-anchor="middle"><title>Moon in Aries at 5.51°</title>5°</text>
<text x="355.0" y="188.3" class="signn" transform="rotate(82.6 355.0 188.3)" dominant-baseline="central" text-anchor="middle"><title>Moon in Aries at 5.51°</title>♈︎</text>
<text x="358.6" y="216.4" class="deg" transform="rotate(82.6 358.6 216.4)" dominant-baseline="central" text-anchor="middle"><title>Moon in Aries at 5.51°</title>31′</text>
<line x1="342.4" y1="115.9" x2="338.5" y2="88.1" class="pmark"/>
<line x1="318.7" y1="133.9" x2="342.4" y2="115.9" class="leader"/>
<text x="305.7" y="143.8" class="planet" dominant-baseline="central" text-anchor="middle"><title>Chiron in Aries at 8.10°</title>⚷︎</text>
<text x="314.6" y="172.1" class="deg" transform="rotate(72.5 314.6 172.1)" dominant-baseline="central" text-anchor="middle"><title>Chiron in Aries at 8.10°</title>8°</text>
<text x="322.0" y="195.6" class="signn" transform="rotate(72.5 322.0 195.6)" dominant-baseline="central" text-anchor="middle"><title>Chiron in Aries at 8.10°</title>♈︎</text>
<text x="330.5" y="222.6" class="deg" transform="rotate(72.5 330.5 222.6)" dominant-baseline="central" text-anchor="middle"><title>Chiron in Aries at 8.10°</title>06′</text>
<line x1="226.2" y1="162.0" x2="210.1" y2="139.1" class="pmark"/>
<text x="237.3" y="177.7" class="planet" dominant-baseline="central" text-anchor="middle"><title>Uranus in Taurus at 5.20°</title>♅︎</text>
<text x="254.4" y="201.9" class="deg" transform="rotate(54.8 254.4 201.9)" dominant-baseline="central" text-anchor="middle"><title>Uranus in Taurus at 5.20°</title>5°</text>
<text x="268.6" y="222.1" class="signn" transform="rotate(54.8 268.6 222.1)" dominant-baseline="central" text-anchor="middle"><title>Uranus in Taurus at 5.20°</title>♉︎</text>
<text x="284.9" y="245.2" class="deg" transform="rotate(54.8 284.9 245.2)" dominant-baseline="central" text-anchor="middle"><title>Uranus in Taurus at 5.20°</title>12′</text>
<line x1="161.5" y1="227.0" x2="138.5" y2="210.9" class="pmark"/>
<text x="177.2" y="238.0" class="planet" dominant-baseline="central" text-anchor="middle"><title>North Node in Taurus at 25.00° ℞</title>☊︎</text>
<text x="210.0" y="261.0" class="deg deg-rx" transform="rotate(35.0 210.0 261.0)" dominant-baseline="central" text-anchor="middle"><title>North Node in Taurus at 25.00° ℞</title>25°℞</text>
<text x="238.8" y="281.1" class="signn signn-rx" transform="rotate(35.0 238.8 281.1)" dominant-baseline="central" text-anchor="middle"><title>North Node in Taurus at 25.00° ℞</title>♉︎</text>
<text x="262.0" y="297.3" class="deg deg-rx" transform="rotate(35.0 262.0 297.3)" dominant-baseline="central" text-anchor="middle"><title>North Node in Taurus at 25.00° ℞</title>00′</text>
<line x1="114.4" y1="405.1" x2="86.5" y2="407.7" class="pmark"/>
<text x="133.5" y="403.3" class="anglelab" dominant-baseline="central" text-anchor="middle"><title>Cancer Ascendant at 5.40°</title>A<tspan class="ac-sm" dy="4.2">C</tspan></text>
<text x="163.0" y="400.5" class="deg" transform="rotate(-5.4 163.0 400.5)" dominant-baseline="central" text-anchor="middle"><title>Cancer Ascendant at 5.40°</title>5°</text>
<text x="187.6" y="398.2" class="signn" transform="rotate(-5.4 187.6 398.2)" dominant-baseline="central" text-anchor="middle"><title>Cancer Ascendant at 5.40°</title>♋︎</text>
<text x="215.7" y="395.5" class="deg" transform="rotate(-5.4 215.7 395.5)" dominant-baseline="central" text-anchor="middle"><title>Cancer Ascendant at 5.40°</title>24′</text>
<line x1="178.2" y1="554.5" x2="157.0" y2="572.8" class="pmark"/>
<text x="192.7" y="542.0" class="planet" dominant-baseline="central" text-anchor="middle"><title>Venus in Leo at 10.85°</title>♀︎</text>
<text x="218.6" y="519.6" class="deg" transform="rotate(-40.9 218.6 519.6)" dominant-baseline="central" text-anchor="middle"><title>Venus in Leo at 10.85°</title>10°</text>
<text x="240.7" y="500.4" class="signn" transform="rotate(-40.9 240.7 500.4)" dominant-baseline="central" text-anchor="middle"><title>Venus in Leo at 10.85°</title>♌︎</text>
<text x="262.1" y="482.0" class="deg" transform="rotate(-40.9 262.1 482.0)" dominant-baseline="central" text-anchor="middle"><title>Venus in Leo at 10.85°</title>51′</text>
<line x1="228.2" y1="599.4" x2="212.3" y2="622.4" class="pmark"/>
<line x1="227.6" y1="588.8" x2="228.2" y2="599.4" class="leader"/>
<text x="226.8" y="574.6" class="planet" dominant-baseline="central" text-anchor="middle"><title>Sun in Leo at 25.32°</title>☉︎</text>
<text x="248.0" y="547.7" class="deg" transform="rotate(-51.8 248.0 547.7)" dominant-baseline="central" text-anchor="middle"><title>Sun in Leo at 25.32°</title>25°</text>
<text x="266.1" y="524.7" class="signn" transform="rotate(-51.8 266.1 524.7)" dominant-baseline="central" text-anchor="middle"><title>Sun in Leo at 25.32°</title>♌︎</text>
<text x="283.6" y="502.5" class="deg" transform="rotate(-51.8 283.6 502.5)" dominant-baseline="central" text-anchor="middle"><title>Sun in Leo at 25.32°</title>19′</text>
<line x1="246.2" y1="610.8" x2="232.2" y2="635.1" class="pmark"/>
<line x1="250.0" y1="608.0" x2="246.2" y2="610.8" class="leader"/>
<text x="263.0" y="598.2" class="planet" dominant-baseline="central" text-anchor="middle"><title>Regulus in Leo at 29.90°</title>✦︎</text>
<text x="279.2" y="568.1" class="deg" transform="rotate(-61.8 279.2 568.1)" dominant-baseline="central" text-anchor="middle"><title>Regulus in Leo at 29.90°</title>29°</text>
<text x="293.0" y="542.3" class="signn" transform="rotate(-61.8 293.0 542.3)" dominant-baseline="central" text-anchor="middle"><title>Regulus in Leo at 29.90°</title>♌︎</text>
<text x="306.4" y="517.4" class="deg" transform="rotate(-61.8 306.4 517.4)" dominant-baseline="central" text-anchor="middle"><title>Regulus in Leo at 29.90°</title>54′</text>
<line x1="289.6" y1="631.0" x2="280.1" y2="657.4" class="pmark"/>
<line x1="290.9" y1="629.5" x2="289.6" y2="631.0" class="leader"/>
<text x="302.8" y="615.3" class="planet" dominant-baseline="central" text-anchor="middle"><title>Mercury in Virgo at 10.20° ℞</title>☿︎</text>
<text x="315.3" y="577.2" class="deg deg-rx" transform="rotate(-71.8 315.3 577.2)" dominant-baseline="central" text-anchor="middle"><title>Mercury in Virgo at 10.20° ℞</title>10°℞</text>
<text x="326.2" y="543.8" class="signn signn-rx" transform="rotate(-71.8 326.2 543.8)" dominant-baseline="central" text-anchor="middle"><title>Mercury in Virgo at 10.20° ℞</title>♍︎</text>
<text x="335.1" y="516.9" class="deg deg-rx" transform="rotate(-71.8 335.1 516.9)" dominant-baseline="central" text-anchor="middle"><title>Mercury in Virgo at 10.20° ℞</title>12′</text>
<line x1="473.2" y1="630.0" x2="483.0" y2="656.2" class="pmark"/>
<text x="466.5" y="612.0" class="planet" dominant-baseline="central" text-anchor="middle"><title>Mars in Libra at 20.44°</title>♂︎</text>
<text x="454.9" y="580.9" class="deg" transform="rotate(69.6 454.9 580.9)" dominant-baseline="central" text-anchor="middle"><title>Mars in Libra at 20.44°</title>26′</text>
<text x="445.0" y="554.4" class="signn" transform="rotate(69.6 445.0 554.4)" dominant-baseline="central" text-anchor="middle"><title>Mars in Libra at 20.44°</title>♎︎</text>
<text x="434.8" y="527.0" class="deg" transform="rotate(69.6 434.8 527.0)" dominant-baseline="central" text-anchor="middle"><title>Mars in Libra at 20.44°</title>20°</text>
<line x1="645.5" y1="353.8" x2="673.4" y2="351.1" class="pmark"/>
<text x="626.5" y="356.9" class="planet" dominant-baseline="central" text-anchor="middle"><title>Pluto in Capricorn at 5.63° ℞</title>♇︎</text>
<text x="593.4" y="360.0" class="deg deg-rx" transform="rotate(-5.4 593.4 360.0)" dominant-baseline="central" text-anchor="middle"><title>Pluto in Capricorn at 5.63° ℞</title>38′</text>
<text x="565.3" y="362.6" class="signn signn-rx" transform="rotate(-5.4 565.3 362.6)" dominant-baseline="central" text-anchor="middle"><title>Pluto in Capricorn at 5.63° ℞</title>♑︎</text>
<text x="534.9" y="365.5" class="deg deg-rx" transform="rotate(-5.4 534.9 365.5)" dominant-baseline="central" text-anchor="middle"><title>Pluto in Capricorn at 5.63° ℞</title>5°℞</text>
<line x1="637.6" y1="310.5" x2="664.6" y2="303.2" class="pmark"/>
<text x="618.8" y="314.3" class="planet" dominant-baseline="central" text-anchor="middle"><title>Jupiter in Capricorn at 15.11° ℞</title>♃︎</text>
<text x="586.7" y="323.1" class="deg deg-rx" transform="rotate(-15.4 586.7 323.1)" dominant-baseline="central" text-anchor="middle"><title>Jupiter in Capricorn at 15.11° ℞</title>07′</text>
<text x="559.4" y="330.6" class="signn signn-rx" transform="rotate(-15.4 559.4 330.6)" dominant-baseline="central" text-anchor="middle"><title>Jupiter in Capricorn at 15.11° ℞</title>♑︎</text>
<text x="525.6" y="340.0" class="deg deg-rx" transform="rotate(-15.4 525.6 340.0)" dominant-baseline="central" text-anchor="middle"><title>Jupiter in Capricorn at 15.11° ℞</title>15°℞</text>
<line x1="582.2" y1="205.9" x2="603.4" y2="187.6" class="pmark"/>
<text x="567.6" y="218.4" class="planet" dominant-baseline="central" text-anchor="middle"><title>Saturn in Aquarius at 10.73°</title>♄︎</text>
<text x="542.4" y="240.1" class="deg" transform="rotate(-40.7 542.4 240.1)" dominant-baseline="central" text-anchor="middle"><title>Saturn in Aquarius at 10.73°</title>44′</text>
<text x="521.0" y="258.6" class="signn" transform="rotate(-40.7 521.0 258.6)" dominant-baseline="central" text-anchor="middle"><title>Saturn in Aquarius at 10.73°</title>♒︎</text>
<text x="498.9" y="277.7" class="deg" transform="rotate(-40.7 498.9 277.7)" dominant-baseline="central" text-anchor="middle"><title>Saturn in Aquarius at 10.73°</title>10°</text>
<line x1="422.1" y1="116.5" x2="426.5" y2="88.9" class="pmark"/>
<line x1="426.2" y1="124.1" x2="422.1" y2="116.5" class="leader"/>
<text x="434.0" y="138.3" class="planet" dominant-baseline="central" text-anchor="middle"><title>Neptune in Pisces at 20.92° ℞</title>♆︎</text>
<text x="426.8" y="170.8" class="deg deg-rx" transform="rotate(-77.4 426.8 170.8)" dominant-baseline="central" text-anchor="middle"><title>Neptune in Pisces at 20.92° ℞</title>55′</text>
<text x="420.6" y="198.4" class="signn signn-rx" transform="rotate(-77.4 420.6 198.4)" dominant-baseline="central" text-anchor="middle"><title>Neptune in Pisces at 20.92° ℞</title>♓︎</text>
<text x="412.9" y="232.7" class="deg deg-rx" transform="rotate(-77.4 412.9 232.7)" dominant-baseline="central" text-anchor="middle"><title>Neptune in Pisces at 20.92° ℞</title>20°℞</text>
<line x1="324.6" y1="460.0" x2="306.4" y2="443.6" stroke="#8a8a8a" class="aspect"/>
<line x1="324.6" y1="460.0" x2="453.7" y2="316.5" stroke="#1f7a8c" class="aspect" stroke-dasharray="4 3"/>
<line x1="370.7" y1="283.2" x2="414.0" y2="471.2" stroke="#1f7a8c" class="aspect" stroke-dasharray="2 3"/>
<line x1="347.0" y1="471.5" x2="395.4" y2="283.9" stroke="#d7263d" class="aspect"/>
<line x1="306.4" y1="443.6" x2="473.9" y2="354.6" stroke="#1f7a8c" class="aspect"/>
<line x1="414.0" y1="471.2" x2="476.8" y2="370.5" stroke="#d7263d" class="aspect"/>
<line x1="473.9" y1="354.6" x2="453.7" y2="316.5" stroke="#1f7a8c" class="aspect" stroke-dasharray="2 3"/>
<line x1="324.6" y1="460.0" x2="370.7" y2="283.2" stroke="#1f7a8c" class="aspect"/>
<text x="271.8" y="409.0" class="housenum" dominant-baseline="central" text-anchor="middle">1</text>
<text x="300.8" y="459.2" class="housenum" dominant-baseline="central" text-anchor="middle">2</text>
<text x="351.0" y="488.2" class="housenum" dominant-baseline="central" text-anchor="middle">3</text>
<text x="409.0" y="488.2" class="housenum" dominant-baseline="central" text-anchor="middle">4</text>
<text x="459.2" y="459.2" class="housenum" dominant-baseline="central" text-anchor="middle">5</text>
<text x="488.2" y="409.0" class="housenum" dominant-baseline="central" text-anchor="middle">6</text>
<text x="488.2" y="351.0" class="housenum" dominant-baseline="central" text-anchor="middle">7</text>
<text x="459.2" y="300.8" class="housenum" dominant-baseline="central" text-anchor="middle">8</text>
<text x="409.0" y="271.8" class="housenum" dominant-baseline="central" text-anchor="middle">9</text>
<text x="351.0" y="271.8" class="housenum" dominant-baseline="central" text-anchor="middle">10</text>
<text x="300.8" y="300.8" class="housenum" dominant-baseline="central" text-anchor="middle">11</text>
<text x="271.8" y="351.0" class="housenum" dominant-baseline="central" text-anchor="middle">12</text>
<text x="380.0" y="30.4" class="title" text-anchor="middle">Sample</text>
</svg>